<svg width="236" height="74" viewBox="0 0 236 74" fill="none" xmlns="http://www.w3.org/2000/svg">
<g opacity="0.5">
<g opacity="0.6">
<path d="M182.388 33.6399L1 72.589L163.782 24.4659L182.388 33.6399Z" fill="#EBEBEB"/>
<path d="M157.084 45.3175C147.436 47.7712 137.729 49.9245 128.011 51.9876C123.152 53.0392 118.283 53.9907 113.414 54.9922L98.7877 57.8365L84.1311 60.5206C79.2323 61.3618 74.3434 62.2532 69.4445 63.0344C59.6368 64.6568 49.8191 66.1792 39.9414 67.401C49.5892 64.9473 59.2869 62.784 69.0146 60.7309C73.8735 59.6693 78.7424 58.7279 83.6113 57.7263L98.2379 54.892L112.894 52.218C117.793 51.3767 122.682 50.4853 127.581 49.7042C137.389 48.0817 147.206 46.5594 157.084 45.3375V45.3175Z" fill="#EBEBEB"/>
<path d="M88.3797 42.1928C82.3011 44.4763 76.1925 46.6296 70.044 48.6626C63.9054 50.7258 57.7268 52.6787 51.5483 54.6016C45.3597 56.4945 39.1511 58.3674 32.9226 60.12C26.694 61.9027 20.4355 63.5652 14.127 65.0976C20.1955 62.8141 26.3141 60.6608 32.4627 58.6177C38.6013 56.5546 44.7798 54.6016 50.9584 52.6787C57.1469 50.7859 63.3555 48.923 69.5841 47.1604C75.8126 45.3777 82.0712 43.7151 88.3797 42.1728V42.1928Z" fill="#EBEBEB"/>
</g>
<path d="M186.976 35.0714C186.626 34.6708 181.767 31.2656 181.397 31.0152L182.227 30.875C182.227 30.875 186.666 34.6607 186.976 35.0814V35.0714Z" fill="#FFC727"/>
<path opacity="0.5" d="M186.976 35.0714C186.626 34.6708 181.767 31.2656 181.397 31.0152L182.227 30.875C182.227 30.875 186.666 34.6607 186.976 35.0814V35.0714Z" fill="white"/>
<path d="M186.996 35.1014C186.996 35.1014 186.996 35.1114 186.996 35.1214C186.956 35.2116 186.626 35.2817 186.256 35.3317C186.256 35.3317 186.256 35.3317 186.246 35.3317C185.786 35.3918 185.286 35.4018 185.206 35.3518C185.106 35.2817 181.597 33.519 179.448 32.4474C179.418 32.4374 179.388 32.4173 179.368 32.4073H179.348C179.248 32.3572 179.138 32.3072 179.048 32.2571C178.678 32.0768 178.378 31.9266 178.168 31.8164C177.948 31.7062 177.828 31.6461 177.828 31.6461L181.437 31.0252C181.647 31.1654 183.287 32.3172 184.737 33.3587C184.787 33.3888 184.837 33.4289 184.886 33.4689C185.026 33.5691 185.156 33.6592 185.286 33.7594C186.166 34.4003 186.886 34.9412 187.016 35.0914C187.016 35.0914 187.016 35.1014 187.026 35.1114C187.026 35.1114 187.026 35.1114 187.026 35.1214L186.996 35.1014Z" fill="#FFC727"/>
<g opacity="0.1">
<path d="M186.996 35.1013C186.996 35.1013 186.996 35.1113 186.996 35.1213C186.956 35.2115 186.626 35.2816 186.257 35.3317C186.257 35.3317 186.257 35.3317 186.247 35.3317C185.787 35.3918 185.287 35.4018 185.207 35.3517C185.097 35.2816 181.498 33.4789 179.368 32.4072C179.718 32.5775 184.337 34.8009 185.267 33.7392C186.147 34.3802 186.866 34.921 186.996 35.0713C186.996 35.0713 186.996 35.0813 187.006 35.0913C187.006 35.0913 187.006 35.0913 187.006 35.1013H186.996Z" fill="black"/>
</g>
<path d="M234.535 39.0684C234.535 39.5591 231.876 39.7093 231.516 39.6092C231.116 39.499 202.173 28.0817 202.173 28.0817L212.82 23.8553C212.9 23.9154 213 23.9855 213.13 24.0656C213.17 24.0957 213.22 24.1257 213.27 24.1557C215.23 25.5178 221.098 29.594 226.217 33.1694C226.317 33.2395 226.417 33.3096 226.517 33.3797C226.657 33.4699 226.787 33.57 226.917 33.6602C230.466 36.1439 233.546 38.3172 234.535 39.0584V39.0684Z" fill="#FFC727"/>
<path d="M234.535 39.0684C231.946 37.1254 215.03 25.3876 212.82 23.8553L214.17 23.3145C214.17 23.3145 233.865 38.3172 234.455 38.9181C234.505 38.9682 234.525 39.0183 234.525 39.0583L234.535 39.0684Z" fill="#FFC727"/>
<path opacity="0.5" d="M234.535 39.0684C231.946 37.1254 215.03 25.3876 212.82 23.8553L214.17 23.3145C214.17 23.3145 233.865 38.3172 234.455 38.9181C234.505 38.9682 234.525 39.0183 234.525 39.0583L234.535 39.0684Z" fill="white"/>
<g opacity="0.5">
<path opacity="0.1" d="M234.535 39.0684C234.535 39.5591 231.876 39.7093 231.516 39.6092C231.116 39.499 202.173 28.0817 202.173 28.0817L212.82 23.8553C212.82 23.8553 210.191 26.8699 216.44 31.5169C220.699 34.6817 225.237 35.3327 226.917 33.6702C230.466 36.1539 233.546 38.3272 234.535 39.0684Z" fill="black"/>
</g>
<path d="M210.391 31.8273C209.571 32.228 208.671 32.5384 208.611 31.7172C208.581 31.3767 208.851 31.0161 210.171 30.3751C210.481 30.2249 211.241 29.8944 211.461 30.5855C211.671 31.2465 210.701 31.6871 210.391 31.8374V31.8273Z" fill="#FFC727"/>
<path opacity="0.1" d="M210.391 31.8273C209.571 32.228 208.671 32.5384 208.611 31.7172C208.581 31.3767 208.851 31.0161 210.171 30.3751C210.481 30.2249 211.241 29.8944 211.461 30.5855C211.671 31.2465 210.701 31.6871 210.391 31.8374V31.8273Z" fill="black"/>
<path d="M217.109 34.5713C216.289 34.9719 215.389 35.2824 215.329 34.4611C215.299 34.1206 215.569 33.7601 216.889 33.1191C217.199 32.9689 217.959 32.6384 218.179 33.3294C218.389 33.9904 217.419 34.4311 217.109 34.5813V34.5713Z" fill="#FFC727"/>
<path opacity="0.1" d="M217.109 34.5713C216.289 34.9719 215.389 35.2824 215.329 34.4611C215.299 34.1206 215.569 33.7601 216.889 33.1191C217.199 32.9689 217.959 32.6384 218.179 33.3294C218.389 33.9904 217.419 34.4311 217.109 34.5813V34.5713Z" fill="black"/>
<path d="M223.828 37.3262C223.008 37.7268 222.108 38.0373 222.048 37.216C222.018 36.8755 222.288 36.515 223.608 35.874C223.918 35.7238 224.677 35.3933 224.897 36.0843C225.107 36.7453 224.138 37.186 223.828 37.3362V37.3262Z" fill="#FFC727"/>
<path opacity="0.1" d="M223.828 37.3262C223.008 37.7268 222.108 38.0373 222.048 37.216C222.018 36.8755 222.288 36.515 223.608 35.874C223.918 35.7238 224.677 35.3933 224.897 36.0843C225.107 36.7453 224.138 37.186 223.828 37.3362V37.3262Z" fill="black"/>
<path d="M221.628 30.0948C220.818 31.537 218.979 32.0578 217.819 32.5185C214.729 33.7504 212.49 34.4515 211.39 31.6372C211.25 31.2766 211.17 30.9361 211.14 30.6156C210.96 28.4924 213.15 27.4408 214.26 26.8499C215.599 26.1388 216.549 25.6781 217.259 25.3877C218.409 24.897 218.929 24.8369 219.458 24.8168C220.078 24.7968 221.488 24.957 221.958 27.541C222.148 28.6226 221.988 29.4439 221.628 30.0848V30.0948Z" fill="#FFC727"/>
<path d="M221.668 28.0819C221.668 29.6643 220.678 30.9362 219.468 30.9362C218.258 30.9362 217.269 29.6543 217.269 28.0819C217.269 26.5095 218.258 25.2275 219.468 25.2275C220.678 25.2275 221.668 26.5095 221.668 28.0819Z" fill="#263238"/>
<path d="M221.408 28.0814C221.408 29.4736 220.538 30.6053 219.468 30.6053C218.398 30.6053 217.519 29.4736 217.519 28.0814C217.519 26.6893 218.388 25.5576 219.468 25.5576C220.548 25.5576 221.408 26.6893 221.408 28.0814Z" fill="#455A64"/>
<path d="M175.549 27.3197L175.039 27.51L173.889 27.9306C172.859 27.4799 171.45 26.869 169.92 26.218C166.071 24.5655 161.522 22.6225 160.642 22.3221C160.672 22.3221 160.712 22.3421 160.752 22.3521C160.782 22.3521 160.812 22.3722 160.852 22.3822C160.892 22.3922 160.942 22.4122 160.982 22.4222C161.002 22.4222 161.032 22.4423 161.062 22.4423C161.152 22.4723 161.252 22.5024 161.362 22.5424C161.462 22.5725 161.562 22.6125 161.672 22.6426C161.932 22.7227 162.222 22.8228 162.542 22.933C162.642 22.9631 162.742 23.0031 162.842 23.0332C162.932 23.0632 163.022 23.0933 163.122 23.1233C163.172 23.1433 163.222 23.1533 163.272 23.1734C163.422 23.2235 163.582 23.2735 163.742 23.3336C163.842 23.3737 163.952 23.4037 164.062 23.4438C165.291 23.8544 166.721 24.3351 168.151 24.8159L168.54 24.9461C169.05 25.1163 169.56 25.2966 170.06 25.4568C171 25.7773 171.9 26.0778 172.69 26.3482C172.819 26.3883 172.939 26.4383 173.059 26.4784C173.479 26.6186 173.869 26.7488 174.199 26.869C174.299 26.909 174.399 26.9391 174.489 26.9691C174.539 26.9892 174.579 26.9992 174.629 27.0192C174.649 27.0192 174.679 27.0392 174.699 27.0392C175.229 27.2195 175.539 27.3297 175.539 27.3297L175.549 27.3197Z" fill="#FFC727"/>
<path opacity="0.5" d="M175.549 27.3197L175.039 27.51L173.889 27.9306C172.859 27.4799 171.45 26.869 169.92 26.218C166.071 24.5655 161.522 22.6225 160.642 22.3221C160.672 22.3221 160.712 22.3421 160.752 22.3521C160.782 22.3521 160.812 22.3722 160.852 22.3822C160.892 22.3922 160.942 22.4122 160.982 22.4222C161.002 22.4222 161.032 22.4423 161.062 22.4423C161.152 22.4723 161.252 22.5024 161.362 22.5424C161.462 22.5725 161.562 22.6125 161.672 22.6426C161.932 22.7227 162.222 22.8228 162.542 22.933C162.642 22.9631 162.742 23.0031 162.842 23.0332C162.932 23.0632 163.022 23.0933 163.122 23.1233C163.172 23.1433 163.222 23.1533 163.272 23.1734C163.422 23.2235 163.582 23.2735 163.742 23.3336C163.842 23.3737 163.952 23.4037 164.062 23.4438C165.291 23.8544 166.721 24.3351 168.151 24.8159L168.54 24.9461C169.05 25.1163 169.56 25.2966 170.06 25.4568C171 25.7773 171.9 26.0778 172.69 26.3482C172.819 26.3883 172.939 26.4383 173.059 26.4784C173.479 26.6186 173.869 26.7488 174.199 26.869C174.299 26.909 174.399 26.9391 174.489 26.9691C174.539 26.9892 174.579 26.9992 174.629 27.0192C174.649 27.0192 174.679 27.0392 174.699 27.0392C175.229 27.2195 175.539 27.3297 175.539 27.3297L175.549 27.3197Z" fill="white"/>
<path d="M173.9 27.9312L170.82 29.0529C170.82 29.0529 163.952 25.8581 159.853 23.855C159.823 23.845 159.803 23.835 159.803 23.835C159.783 23.835 159.763 23.815 159.753 23.8049C159.323 23.5946 158.923 23.4043 158.573 23.2241C157.513 22.6933 156.843 22.3327 156.863 22.2826C156.973 22.0523 159.523 22.0022 160.543 22.2826C160.543 22.2826 160.563 22.2826 160.573 22.2826C160.593 22.2826 160.613 22.2927 160.643 22.3027C161.492 22.5931 165.771 24.4159 169.531 26.0283C169.561 26.0383 169.591 26.0484 169.621 26.0684C169.72 26.1185 169.82 26.1585 169.92 26.1986C171.45 26.8596 172.86 27.4705 173.89 27.9112L173.9 27.9312Z" fill="#FFC727"/>
<g opacity="0.1">
<path d="M173.899 27.9315L170.82 29.0532C170.82 29.0532 163.951 25.8583 159.852 23.8553C160.532 24.1457 167.481 27.2104 169.2 26.7897C169.6 26.6896 169.84 26.4592 169.93 26.2189C171.46 26.8799 172.869 27.4908 173.899 27.9315Z" fill="black"/>
</g>
<path d="M181.808 23.5342L174.35 27.1296C174.35 27.1296 174.43 20.7199 174.48 16.1129C174.48 15.9527 174.48 15.7924 174.48 15.6422C174.48 15.512 174.48 15.3918 174.48 15.2717C174.5 13.6892 174.52 12.4173 174.53 11.8465C174.56 9.99364 174.76 9.61306 175.249 9.91352C175.739 10.214 177.919 12.1169 178.579 12.9581C179.118 13.6492 180.308 17.8656 181.078 20.75C181.078 20.78 181.088 20.8 181.098 20.8201C181.148 20.9903 181.188 21.1506 181.228 21.3108C181.568 22.6128 181.808 23.5342 181.808 23.5342Z" fill="#FFC727"/>
<g opacity="0.1">
<path d="M181.808 23.5345L174.35 27.13C174.35 27.13 174.43 20.7203 174.48 16.1133C175.579 18.567 177.749 21.9221 181.228 21.3212C181.568 22.6232 181.808 23.5446 181.808 23.5446V23.5345Z" fill="black"/>
</g>
<path d="M169.13 31.056C168.36 29.1331 171.62 27.3804 175.329 25.7179C179.028 24.0554 215.529 7.93091 220.818 6.48872C226.107 5.04653 232.266 7.01952 233.315 10.0441C234.875 14.591 228.296 18.3868 204.652 28.2117C201.553 29.4936 187.696 32.8287 179.908 32.8587C171.58 32.8888 169.52 31.9974 169.14 31.056H169.13Z" fill="#FFC727"/>
<path opacity="0.5" d="M169.13 31.056C168.36 29.1331 171.62 27.3804 175.329 25.7179C179.028 24.0554 215.529 7.93091 220.818 6.48872C226.107 5.04653 232.266 7.01952 233.315 10.0441C234.875 14.591 228.296 18.3868 204.652 28.2117C201.553 29.4936 187.696 32.8287 179.908 32.8587C171.58 32.8888 169.52 31.9974 169.14 31.056H169.13Z" fill="white"/>
<path opacity="0.1" d="M204.652 28.211C201.552 29.503 187.696 32.828 179.897 32.8581C171.569 32.8881 169.51 31.9967 169.13 31.0553C168.73 30.0538 169.43 29.0923 170.72 28.1709C170.72 28.3612 170.74 28.5515 170.82 28.7418C171.159 29.6031 173.029 30.4043 180.587 30.3843C187.656 30.3643 197.823 24.6256 200.643 23.4538C222.098 14.5403 230.476 13.7991 229.056 9.6829C228.436 7.89018 225.837 6.50808 222.767 6.1275C227.526 5.55664 232.395 7.39943 233.305 10.0635C234.865 14.6104 228.286 18.4161 204.642 28.231L204.652 28.211Z" fill="black"/>
<path d="M180.697 24.7063L181.537 24.3457V25.5776L180.697 25.9381V24.7063Z" fill="#455A64"/>
<path d="M182.227 24.0459L183.126 23.6553V24.8871L182.227 25.2777V24.0459Z" fill="#455A64"/>
<path d="M183.817 23.3546L184.716 22.964V24.2059L183.817 24.5864V23.3546Z" fill="#455A64"/>
<path d="M185.406 22.6635L186.296 22.283V23.5148L185.406 23.9054V22.6635Z" fill="#455A64"/>
<path d="M186.996 21.9824L187.886 21.5918V22.8237L186.996 23.2143V21.9824Z" fill="#455A64"/>
<path d="M188.575 21.292L189.475 20.9014V22.1433L188.575 22.5238V21.292Z" fill="#455A64"/>
<path d="M190.165 20.6004L191.065 20.2098V21.4517L190.165 21.8423V20.6004Z" fill="#455A64"/>
<path d="M191.755 19.9189L192.645 19.5283V20.7602L191.755 21.1508V19.9189Z" fill="#455A64"/>
<path d="M193.345 19.2285L194.235 18.8379V20.0698L193.345 20.4604V19.2285Z" fill="#455A64"/>
<path d="M194.924 18.5373L195.824 18.1467V19.3886L194.924 19.7792V18.5373Z" fill="#455A64"/>
<path d="M196.514 17.8463L197.413 17.4657V18.6976L196.514 19.0882V17.8463Z" fill="#455A64"/>
<path d="M198.104 17.165L198.993 16.7744V18.0063L198.104 18.3969V17.165Z" fill="#455A64"/>
<path d="M199.683 16.4746L200.582 16.084V17.3259L199.683 17.7064V16.4746Z" fill="#455A64"/>
<path d="M201.272 15.7831L202.172 15.4025V16.6344L201.272 17.025V15.7831Z" fill="#455A64"/>
<path d="M202.862 15.1025L203.752 14.7119V15.9438L202.862 16.3344V15.1025Z" fill="#455A64"/>
<path d="M204.452 14.4111L205.342 14.0205V15.2524L204.452 15.643V14.4111Z" fill="#455A64"/>
<path d="M206.031 13.7197L206.931 13.3291V14.571L206.031 14.9616V13.7197Z" fill="#455A64"/>
<path d="M207.621 13.029L208.521 12.6484V13.8802L207.621 14.2708V13.029Z" fill="#455A64"/>
<path d="M209.211 12.3476L210.101 11.957V13.1889L209.211 13.5795V12.3476Z" fill="#455A64"/>
<path d="M210.8 11.6562L211.69 11.2656V12.5075L210.8 12.8881V11.6562Z" fill="#455A64"/>
<path d="M212.38 10.9655L213.28 10.585V11.8168L212.38 12.2074V10.9655Z" fill="#455A64"/>
<path d="M214.87 9.89453V11.1264L213.97 11.517V10.2851L214.87 9.89453Z" fill="#455A64"/>
<path d="M216.449 9.20312V10.445L215.56 10.8256V9.59372L216.449 9.20312Z" fill="#455A64"/>
<path d="M218.038 8.51172V9.7536L217.139 10.1442V8.90231L218.038 8.51172Z" fill="#455A64"/>
<path d="M219.628 7.83105V9.06292L218.728 9.45352V8.22165L219.628 7.83105Z" fill="#455A64"/>
<path d="M223.777 7.32025C224.267 6.92965 224.847 6.69931 225.437 6.53906V7.36031C224.897 7.34028 224.357 7.33026 223.777 7.31023V7.32025Z" fill="#455A64"/>
<path d="M227.386 6.34833V7.48005C226.967 7.43999 226.557 7.41996 226.127 7.39993V6.40842C226.537 6.34833 226.967 6.3283 227.386 6.34833Z" fill="#455A64"/>
<path d="M231.375 7.95096C231.026 7.95096 230.706 7.88085 230.376 7.84079C230.046 7.81075 229.746 7.74064 229.426 7.72061C228.966 7.6505 228.516 7.60043 228.076 7.56037V6.42865C228.626 6.50877 229.156 6.64898 229.666 6.8593C229.986 6.97949 230.286 7.14974 230.576 7.32C230.726 7.40012 230.856 7.51029 230.996 7.62046C231.126 7.73062 231.265 7.83078 231.385 7.95096H231.375Z" fill="#455A64"/>
<path d="M202.863 18.0162L192.345 23.0838C192.345 23.0838 175.629 14.1102 163.632 7.54027C163.622 7.54027 163.612 7.53025 163.602 7.53025C157.193 4.02493 152.315 1.3008 152.385 1.20065C152.584 0.930237 155.804 0.960282 157.083 1.13054C157.233 1.15057 157.363 1.1706 157.443 1.20065C157.983 1.35088 176.899 8.37153 190.146 13.289C197.344 15.963 202.863 18.0162 202.863 18.0162Z" fill="#FFC727"/>
<g opacity="0.1">
<path d="M202.863 18.0162L192.345 23.0839C192.345 23.0839 175.629 14.1103 163.632 7.54028C164.572 8.011 186.077 18.8775 188.886 17.245C189.946 16.6341 190.226 15.0417 190.156 13.289C197.354 15.9631 202.873 18.0162 202.873 18.0162H202.863Z" fill="black"/>
</g>
<path d="M204.392 17.3249L201.273 18.8272C193.285 15.4721 160.042 2.31215 157.263 1.20047C157.233 1.19045 157.203 1.18044 157.173 1.17042C157.143 1.17042 157.123 1.15039 157.103 1.15039C157.093 1.15039 157.083 1.15039 157.083 1.15039C157.233 1.17042 157.363 1.19045 157.443 1.2205C158.273 1.45085 204.392 17.3349 204.392 17.3349V17.3249Z" fill="#FFC727"/>
<path opacity="0.5" d="M204.392 17.3249L201.273 18.8272C193.285 15.4721 160.042 2.31215 157.263 1.20047C157.233 1.19045 157.203 1.18044 157.173 1.17042C157.143 1.17042 157.123 1.15039 157.103 1.15039C157.093 1.15039 157.083 1.15039 157.083 1.15039C157.233 1.17042 157.363 1.19045 157.443 1.2205C158.273 1.45085 204.392 17.3349 204.392 17.3349V17.3249Z" fill="white"/>
<path d="M181.868 17.5652C180.838 18.0659 179.719 18.4565 179.639 17.425C179.609 17.0043 179.938 16.5436 181.588 15.7524C181.978 15.5621 182.928 15.1515 183.198 16.0128C183.468 16.8441 182.248 17.3849 181.858 17.5752L181.868 17.5652Z" fill="#FFC727"/>
<path opacity="0.1" d="M181.868 17.5652C180.838 18.0659 179.719 18.4565 179.639 17.425C179.609 17.0043 179.938 16.5436 181.588 15.7524C181.978 15.5621 182.928 15.1515 183.198 16.0128C183.468 16.8441 182.248 17.3849 181.858 17.5752L181.868 17.5652Z" fill="black"/>
<path d="M172.97 13.0583C171.94 13.5591 170.82 13.9497 170.74 12.9181C170.71 12.4975 171.04 12.0368 172.69 11.2456C173.08 11.0553 174.029 10.6447 174.299 11.506C174.569 12.3372 173.349 12.8781 172.96 13.0684L172.97 13.0583Z" fill="#FFC727"/>
<path opacity="0.1" d="M172.97 13.0583C171.94 13.5591 170.82 13.9497 170.74 12.9181C170.71 12.4975 171.04 12.0368 172.69 11.2456C173.08 11.0553 174.029 10.6447 174.299 11.506C174.569 12.3372 173.349 12.8781 172.96 13.0684L172.97 13.0583Z" fill="black"/>
<path d="M164.041 8.50129C163.082 8.972 162.042 9.33255 161.962 8.37109C161.932 7.9805 162.232 7.54985 163.782 6.80872C164.141 6.63846 165.021 6.24787 165.281 7.04909C165.531 7.82026 164.401 8.33103 164.031 8.50129H164.041Z" fill="#FFC727"/>
<path opacity="0.1" d="M164.041 8.50129C163.082 8.972 162.042 9.33255 161.962 8.37109C161.932 7.9805 162.232 7.54985 163.782 6.80872C164.141 6.63846 165.021 6.24787 165.281 7.04909C165.531 7.82026 164.401 8.33103 164.031 8.50129H164.041Z" fill="black"/>
<path d="M195.154 16.5441C194.344 17.9863 192.505 18.507 191.345 18.9677C188.256 20.1996 186.016 20.9007 184.917 18.0864C184.777 17.7259 184.697 17.3853 184.667 17.0649C184.487 14.9416 186.676 13.89 187.786 13.2991C189.126 12.5881 190.075 12.1274 190.785 11.8369C191.935 11.3462 192.455 11.2861 192.985 11.2661C193.605 11.246 195.014 11.4063 195.484 13.9902C195.674 15.0718 195.514 15.8931 195.154 16.534V16.5441Z" fill="#FFC727"/>
<path d="M192.985 17.3854C194.2 17.3854 195.184 16.1074 195.184 14.531C195.184 12.9546 194.2 11.6767 192.985 11.6767C191.77 11.6767 190.785 12.9546 190.785 14.531C190.785 16.1074 191.77 17.3854 192.985 17.3854Z" fill="#263238"/>
<path d="M194.934 14.5306C194.934 15.9227 194.064 17.0544 192.995 17.0544C191.925 17.0544 191.045 15.9227 191.045 14.5306C191.045 13.1385 191.915 12.0068 192.995 12.0068C194.074 12.0068 194.934 13.1385 194.934 14.5306Z" fill="#455A64"/>
<path d="M161.682 22.6527C161.572 22.6127 161.472 22.5827 161.372 22.5527C161.472 22.5827 161.572 22.6227 161.682 22.6527Z" fill="#FFC727"/>
</g>
</svg>
