<svg width="72" height="134" viewBox="0 0 72 134" fill="none" xmlns="http://www.w3.org/2000/svg">
<g opacity="0.5">
<path d="M57.6957 55.0615L21.6773 45.0349L3.04977 112.185L39.0681 122.211L57.6957 55.0615Z" fill="#FFC727"/>
<g opacity="0.1">
<path d="M55.4921 63.0363L19.4737 53.0096L19.3603 53.4184L55.3787 63.445L55.4921 63.0363Z" fill="#020100"/>
<path d="M53.4803 70.2978L17.4619 60.2712L17.3486 60.6799L53.3669 70.7065L53.4803 70.2978Z" fill="#020100"/>
<path d="M51.4553 77.5519L15.4369 67.5253L15.3235 67.934L51.3419 77.9606L51.4553 77.5519Z" fill="#020100"/>
<path d="M49.4452 84.8017L13.4268 74.7751L13.3134 75.1838L49.3318 85.2104L49.4452 84.8017Z" fill="#020100"/>
<path d="M47.4333 92.0625L11.415 82.0359L11.3016 82.4446L47.32 92.4712L47.4333 92.0625Z" fill="#020100"/>
<path d="M45.4212 99.3183L9.40285 89.2917L9.28948 89.7004L45.3078 99.727L45.4212 99.3183Z" fill="#020100"/>
<path d="M43.4094 106.573L7.39104 96.5466L7.27766 96.9553L43.296 106.982L43.4094 106.573Z" fill="#020100"/>
<path d="M41.3988 113.828L5.38039 103.801L5.26702 104.21L41.2854 114.237L41.3988 113.828Z" fill="#020100"/>
</g>
<path d="M41.1063 50.4251L38.3267 49.6519L19.7108 116.805L22.4904 117.578L41.1063 50.4251Z" fill="#263238"/>
<path d="M41.0705 75.6747L38.0679 74.8389L32.4397 95.1275L35.4423 95.9634L41.0705 75.6747Z" fill="#263238"/>
<path d="M40.4894 117.18L31.835 114.774L26.9785 118.837L39.0933 122.211L40.4894 117.18Z" fill="#263238"/>
<path d="M4.46884 107.158L13.1166 109.564L15.1876 115.556L3.07275 112.182L4.46884 107.158Z" fill="#263238"/>
<path d="M31.2917 126.532L34.4941 127.426L38.2854 121.985L31.3778 120.062L32.5158 123.628L31.2917 126.532Z" fill="#263238"/>
<path d="M27.8112 127.532C27.1363 129.971 28.5589 132.503 31.0004 133.179C33.4352 133.855 35.9627 132.43 36.6376 129.984C37.3125 127.539 35.89 125.013 33.4485 124.337C31.0136 123.661 28.4861 125.086 27.8112 127.532Z" fill="#37474F"/>
<path d="M29.8162 128.089C29.4457 129.421 30.2265 130.806 31.5564 131.177C32.8863 131.549 34.2691 130.766 34.6397 129.434C35.0102 128.102 34.2294 126.717 32.8995 126.345C31.5696 125.974 30.1868 126.756 29.8162 128.089Z" fill="#DBDBDB"/>
<path d="M32.5822 127.286C32.483 127.63 32.4499 127.929 32.5028 127.942C32.5557 127.955 32.6748 127.683 32.7675 127.339C32.8667 126.994 32.8998 126.696 32.8469 126.682C32.7939 126.669 32.6748 126.941 32.5822 127.286Z" fill="#263238"/>
<path d="M33.5214 127.968C33.2105 128.147 32.9789 128.326 33.0053 128.372C33.0318 128.418 33.3097 128.312 33.6207 128.133C33.9316 127.954 34.1632 127.775 34.1368 127.729C34.1103 127.683 33.8324 127.789 33.5214 127.968Z" fill="#263238"/>
<path d="M33.7004 129.116C33.3563 129.016 33.0586 128.983 33.0454 129.036C33.0321 129.089 33.3034 129.208 33.6474 129.301C33.9915 129.401 34.2893 129.434 34.3025 129.381C34.3157 129.328 34.0444 129.208 33.7004 129.116Z" fill="#263238"/>
<path d="M33.0191 130.056C32.8405 129.745 32.6618 129.513 32.6155 129.539C32.5692 129.566 32.6751 129.844 32.8537 130.156C33.0324 130.467 33.211 130.699 33.2573 130.673C33.3036 130.646 33.1978 130.368 33.0191 130.056Z" fill="#263238"/>
<path d="M31.8675 130.235C31.9667 129.891 31.9998 129.592 31.9469 129.579C31.894 129.566 31.7749 129.838 31.6822 130.182C31.583 130.527 31.5499 130.825 31.6028 130.838C31.6558 130.852 31.7749 130.58 31.8675 130.235Z" fill="#263238"/>
<path d="M30.9277 129.553C31.2386 129.374 31.4702 129.195 31.4438 129.149C31.4173 129.102 31.1394 129.208 30.8284 129.387C30.5174 129.566 30.2859 129.745 30.3123 129.792C30.3388 129.838 30.6167 129.732 30.9277 129.553Z" fill="#263238"/>
<path d="M30.7494 128.406C31.0934 128.505 31.3912 128.538 31.4044 128.485C31.4176 128.432 31.1464 128.313 30.8023 128.22C30.4583 128.121 30.1605 128.088 30.1473 128.141C30.1341 128.194 30.4053 128.313 30.7494 128.406Z" fill="#263238"/>
<path d="M31.4377 127.464C31.6164 127.776 31.795 128.008 31.8413 127.981C31.8876 127.955 31.7818 127.677 31.6031 127.365C31.4245 127.054 31.2458 126.822 31.1995 126.848C31.1532 126.875 31.2591 127.153 31.4377 127.464Z" fill="#263238"/>
<path d="M7.52543 119.923L4.32967 119.029L3.87975 112.407L10.7874 114.329L7.97536 116.795L7.52543 119.923Z" fill="#263238"/>
<path d="M9.99361 122.574C9.31872 125.014 6.79122 126.445 4.35635 125.769C1.92148 125.093 0.492312 122.561 1.1672 120.122C1.84208 117.683 4.36958 116.251 6.80446 116.927C9.23933 117.603 10.6685 120.135 9.99361 122.574Z" fill="#37474F"/>
<path d="M7.99537 122.018C7.62484 123.35 6.24861 124.132 4.91208 123.761C3.58216 123.39 2.80141 122.011 3.17194 120.672C3.54246 119.34 4.91869 118.558 6.25522 118.929C7.58514 119.3 8.36589 120.679 7.99537 122.018Z" fill="#DBDBDB"/>
<path d="M6.03714 119.897C5.9379 120.241 5.8188 120.513 5.77249 120.5C5.71956 120.487 5.75925 120.195 5.85188 119.844C5.95113 119.499 6.07023 119.227 6.11654 119.241C6.16948 119.254 6.12978 119.545 6.03714 119.897Z" fill="#263238"/>
<path d="M4.87954 119.996C5.05819 120.307 5.16405 120.585 5.11774 120.612C5.07142 120.638 4.89277 120.407 4.71413 120.095C4.53548 119.783 4.42962 119.505 4.47593 119.479C4.52225 119.452 4.7009 119.684 4.87954 119.996Z" fill="#263238"/>
<path d="M4.13179 120.89C4.47585 120.99 4.74713 121.109 4.7339 121.155C4.72066 121.208 4.42953 121.169 4.07886 121.076C3.7348 120.976 3.46353 120.857 3.47676 120.811C3.48999 120.758 3.78112 120.798 4.13179 120.89Z" fill="#263238"/>
<path d="M4.23714 122.05C4.54811 121.871 4.82601 121.765 4.85247 121.812C4.87894 121.858 4.64736 122.037 4.33638 122.216C4.02541 122.395 3.74751 122.501 3.72105 122.455C3.69458 122.408 3.92616 122.229 4.23714 122.05Z" fill="#263238"/>
<path d="M5.12378 122.793C5.22302 122.448 5.34212 122.176 5.38844 122.19C5.44137 122.203 5.40167 122.495 5.30904 122.846C5.20979 123.19 5.09069 123.462 5.04438 123.449C4.99144 123.436 5.03114 123.144 5.12378 122.793Z" fill="#263238"/>
<path d="M6.28215 122.694C6.10351 122.382 5.99764 122.104 6.04396 122.077C6.09027 122.051 6.26892 122.283 6.44757 122.594C6.62621 122.906 6.73208 123.184 6.68576 123.211C6.63944 123.237 6.4608 123.005 6.28215 122.694Z" fill="#263238"/>
<path d="M7.02992 121.798C6.68587 121.699 6.41459 121.58 6.42782 121.533C6.44106 121.48 6.73218 121.52 7.08286 121.613C7.42691 121.712 7.69819 121.832 7.68496 121.878C7.67173 121.931 7.3806 121.891 7.02992 121.798Z" fill="#263238"/>
<path d="M6.92377 120.645C6.61279 120.824 6.3349 120.93 6.30843 120.883C6.28197 120.837 6.51354 120.658 6.82452 120.479C7.1355 120.3 7.41339 120.194 7.43985 120.24C7.46632 120.287 7.23474 120.466 6.92377 120.645Z" fill="#263238"/>
<path d="M48.8108 49.3072L42.7989 47.6348L41.9597 50.6619L47.9716 52.3344L48.8108 49.3072Z" fill="#263238"/>
<path d="M70.6493 2.53866L67.9145 1.77734L53.45 53.9199L56.1848 54.6812L70.6493 2.53866Z" fill="#C7C7C7"/>
<path d="M71.4471 1.93781L67.552 0.853516L65.7309 7.41843L69.626 8.50273L71.4471 1.93781Z" fill="#263238"/>
</g>
</svg>
